<svg xmlns="http://www.w3.org/2000/svg" viewBox="0 0 200 253.77"><defs><style>.cls-1{fill:#fff;}.cls-2{fill:#f0c835;}.cls-3{fill:#468c96;}.cls-4{fill:#5096a0;}.cls-5{fill:#ff763d;}.cls-6{fill:#ff8047;}</style></defs><title>tower_marker</title><g id="Layer_2" data-name="Layer 2"><g id="Layer_1-2" data-name="Layer 1"><path class="cls-1" d="M180,0H20A20,20,0,0,0,0,20V180a20,20,0,0,0,20,20H58.54a20,20,0,0,1,18.29,11.9l17.49,39.49a4,4,0,0,0,7.31,0l17.49-39.49A20,20,0,0,1,137.41,200H180a20,20,0,0,0,20-20V20A20,20,0,0,0,180,0Z"/><path class="cls-2" d="M74.85,46a2.85,2.85,0,0,0-4.18.15,38.66,38.66,0,0,0-.29,50.24,2.86,2.86,0,0,0,4.2.18l1-1a2.85,2.85,0,0,0,.17-3.85A31.62,31.62,0,0,1,76,50.78a2.84,2.84,0,0,0-.15-3.87Z"/><path class="cls-2" d="M129.33,46.11a2.87,2.87,0,0,0-4.18-.15l-1,.95a2.84,2.84,0,0,0-.15,3.87,31.62,31.62,0,0,1,.25,41,2.85,2.85,0,0,0,.17,3.85l1,1a2.86,2.86,0,0,0,4.2-.18,38.66,38.66,0,0,0-.29-50.24Z"/><path class="cls-2" d="M63.42,38.36a2.86,2.86,0,0,0-.09-3.93l-.95-.94a2.91,2.91,0,0,0-2.09-.84,2.84,2.84,0,0,0-2,.94,56.25,56.25,0,0,0-.3,75.3,2.87,2.87,0,0,0,4.15.12l.95-1a2.84,2.84,0,0,0,.11-3.91,49.24,49.24,0,0,1,.26-65.79Z"/><path class="cls-2" d="M141.75,33.59a2.84,2.84,0,0,0-4.13-.1l-1,.95a2.84,2.84,0,0,0-.09,3.92,49.21,49.21,0,0,1,.26,65.79,2.86,2.86,0,0,0,.11,3.91l1,1a2.87,2.87,0,0,0,4.15-.12,56.25,56.25,0,0,0-.3-75.3Z"/><path class="cls-2" d="M50.94,25.93A2.85,2.85,0,0,0,50.87,22L49.92,21a2.88,2.88,0,0,0-2.07-.84,2.91,2.91,0,0,0-2,.91,73.81,73.81,0,0,0-.29,100.28,2.86,2.86,0,0,0,4.12.09l.94-1a2.85,2.85,0,0,0,.09-3.94,66.79,66.79,0,0,1,.27-90.65Z"/><path class="cls-2" d="M154.19,21.1a2.91,2.91,0,0,0-2-.91,2.88,2.88,0,0,0-2.07.84l-1,.94a2.86,2.86,0,0,0-.07,4,66.8,66.8,0,0,1,.27,90.66,2.85,2.85,0,0,0,.09,3.94l.94.94a2.85,2.85,0,0,0,4.12-.08,73.82,73.82,0,0,0-.29-100.29Z"/><path class="cls-3" d="M141.77,174.7,103.57,69.77a.84.84,0,0,1-.06-.14l-.18-.37-.18-.3a3.15,3.15,0,0,0-.22-.29,3.47,3.47,0,0,0-.25-.29l-.26-.23-.32-.24-.28-.16a2.93,2.93,0,0,0-.4-.19.67.67,0,0,0-.12-.06l-.16,0a2.09,2.09,0,0,0-.43-.11,1.63,1.63,0,0,0-.33,0,3.62,3.62,0,0,0-.76,0,1.88,1.88,0,0,0-.33,0,2.09,2.09,0,0,0-.43.11l-.16,0a.67.67,0,0,0-.12.06,2.93,2.93,0,0,0-.4.19l-.28.16-.32.24-.25.23a3.58,3.58,0,0,0-.26.29l-.22.29-.18.3c-.06.12-.12.24-.17.37s0,.09-.07.14L58.24,174.7a3.81,3.81,0,0,0,2.27,4.88,3.92,3.92,0,0,0,1.3.23,3.8,3.8,0,0,0,3.57-2.51l5-13.59h59.34l5,13.59a3.8,3.8,0,0,0,3.57,2.51,3.92,3.92,0,0,0,1.3-.23A3.82,3.82,0,0,0,141.77,174.7ZM100,82.18l1.27,3.5L97.51,89Zm3.37,9.27,2.09,5.73H96.94Zm-10.9,11.44h8.73l-11.57,7.79ZM108.3,105l3.78,10.39H92.87ZM85.84,121.08h18L82.1,131.36Zm28.75,1.2,4.5,12.35H88.51ZM78.84,140.33h30.87L73.42,155.22ZM81.66,158l40-16.4,6,16.4Z"/><path class="cls-4" d="M101.27,85.68,100,86.81v7.64l3.37-3,2.09,5.73H100v5.71h1.2l-1.2.81v6.87l8.3-5.58,3.78,10.39H100v5.7h3.79l-3.79,1.8v6.31l14.59-6.91,4.5,12.35H100v5.7h9.71l-9.71,4v6.17l21.63-8.87,6,16.4H100v5.7h29.67l5,13.59a3.8,3.8,0,0,0,3.57,2.51,3.92,3.92,0,0,0,1.3-.23,3.82,3.82,0,0,0,2.28-4.88L103.57,69.77a.84.84,0,0,1-.06-.14l-.18-.37-.18-.3a3.15,3.15,0,0,0-.22-.29,3.47,3.47,0,0,0-.25-.29l-.26-.23-.32-.24-.28-.16a2.93,2.93,0,0,0-.4-.19.67.67,0,0,0-.12-.06l-.16,0a2.09,2.09,0,0,0-.43-.11,1.63,1.63,0,0,0-.33,0,2.42,2.42,0,0,0-.38,0v14.9Z"/><path class="cls-5" d="M100,57.37a14,14,0,1,0,14,14A14,14,0,0,0,100,57.37Z"/><path class="cls-6" d="M114,71.4a14,14,0,0,0-14-14V85.44A14,14,0,0,0,114,71.4Z"/></g></g></svg>