<svg xmlns="http://www.w3.org/2000/svg" viewBox="0 0 227.31 264.54"><defs><style>.cls-1,.cls-7{fill:#fff;}.cls-2{fill:#f0c835;}.cls-3{fill:#468c96;}.cls-4{fill:#5096a0;}.cls-5{fill:#ff763d;}.cls-6{fill:#ff8047;}.cls-7{stroke:#ce0000;stroke-miterlimit:10;stroke-width:16px;}</style></defs><title>Asset 3</title><g id="Layer_2" data-name="Layer 2"><g id="Layer_1-2" data-name="Layer 1"><path class="cls-1" d="M193.66,10.77h-160a20,20,0,0,0-20,20v160a20,20,0,0,0,20,20H72.2a20,20,0,0,1,18.28,11.9L108,262.16a4,4,0,0,0,7.32,0l17.49-39.49a20,20,0,0,1,18.29-11.9h42.59a20,20,0,0,0,20-20v-160A20,20,0,0,0,193.66,10.77Z"/><path class="cls-2" d="M87.77,56.73a2.9,2.9,0,0,0-2.12-.84,2.86,2.86,0,0,0-2.06,1,38.66,38.66,0,0,0-.29,50.24,2.86,2.86,0,0,0,4.2.18l1-1a2.85,2.85,0,0,0,.17-3.85,31.61,31.61,0,0,1,.25-40.94,2.85,2.85,0,0,0-.15-3.88Z"/><path class="cls-2" d="M142.25,56.88a2.87,2.87,0,0,0-4.18-.15l-.95,1a2.85,2.85,0,0,0-.15,3.88,31.61,31.61,0,0,1,.25,40.94,2.85,2.85,0,0,0,.17,3.85l1,1a2.86,2.86,0,0,0,4.2-.18,38.66,38.66,0,0,0-.29-50.24Z"/><path class="cls-2" d="M76.34,49.13a2.86,2.86,0,0,0-.09-3.93l-1-.94a2.91,2.91,0,0,0-2.09-.84,2.84,2.84,0,0,0-2,.94,56.25,56.25,0,0,0-.3,75.3,2.87,2.87,0,0,0,4.15.12l1-1a2.85,2.85,0,0,0,.11-3.91,49.21,49.21,0,0,1,.26-65.79Z"/><path class="cls-2" d="M154.67,44.36a2.84,2.84,0,0,0-4.13-.1l-.95,1a2.84,2.84,0,0,0-.09,3.92,49.21,49.21,0,0,1,.26,65.79,2.85,2.85,0,0,0,.11,3.91l.95,1a2.87,2.87,0,0,0,4.15-.12,56.25,56.25,0,0,0-.3-75.3Z"/><path class="cls-2" d="M63.86,36.7a2.85,2.85,0,0,0-.07-4l-.95-.95A2.88,2.88,0,0,0,60.77,31a2.91,2.91,0,0,0-2,.91,73.81,73.81,0,0,0-.29,100.28,2.86,2.86,0,0,0,4.12.09l.94-1a2.85,2.85,0,0,0,.09-3.94,66.79,66.79,0,0,1,.27-90.65Z"/><path class="cls-2" d="M167.11,31.87a2.93,2.93,0,0,0-2-.91,2.88,2.88,0,0,0-2.07.84l-.95.95a2.85,2.85,0,0,0-.07,4,66.8,66.8,0,0,1,.27,90.66,2.86,2.86,0,0,0,.08,3.94l.95.94a2.84,2.84,0,0,0,2.08.84,2.88,2.88,0,0,0,2-.92,73.85,73.85,0,0,0-.29-100.29Z"/><path class="cls-3" d="M154.69,185.47,116.49,80.54a.84.84,0,0,1-.06-.14q-.09-.2-.18-.36l-.18-.31-.22-.29a3.47,3.47,0,0,0-.25-.29l-.26-.23-.32-.24-.28-.16a2.93,2.93,0,0,0-.4-.19l-.12-.06-.16,0a2.09,2.09,0,0,0-.43-.11l-.33-.05a3.62,3.62,0,0,0-.76,0l-.34.05a2.17,2.17,0,0,0-.42.11l-.16,0-.12.06a2.93,2.93,0,0,0-.4.19l-.28.16-.32.24-.25.23a2.35,2.35,0,0,0-.26.29l-.22.29-.18.31a3,3,0,0,0-.17.36s0,.09-.07.14L71.16,185.47a3.81,3.81,0,0,0,2.27,4.88,3.92,3.92,0,0,0,1.3.23,3.8,3.8,0,0,0,3.57-2.51l5-13.59h59.34l4.95,13.59a3.8,3.8,0,0,0,3.57,2.51,4,4,0,0,0,1.3-.23A3.81,3.81,0,0,0,154.69,185.47ZM112.92,93l1.27,3.5-3.76,3.36Zm3.37,9.27,2.09,5.73h-8.52Zm-10.9,11.44h8.73l-11.57,7.79Zm15.83,2.1L125,126.15H105.79ZM98.76,131.85h17.95L95,142.13Zm28.75,1.2L132,145.4H101.43Zm-35.75,18h30.87L86.34,166Zm2.81,17.68,40-16.4,6,16.4Z"/><path class="cls-4" d="M114.19,96.45l-1.27,1.13v7.64l3.37-3,2.09,5.73h-5.46v5.71h1.2l-1.2.81v6.87l8.3-5.58L125,126.15H112.92v5.7h3.79l-3.79,1.8V140l14.59-6.91L132,145.4H112.92v5.7h9.71l-9.71,4v6.17l21.63-8.87,6,16.4h-27.6v5.7h29.67l4.95,13.59a3.8,3.8,0,0,0,3.57,2.51,4,4,0,0,0,1.3-.23,3.81,3.81,0,0,0,2.28-4.88L116.49,80.54a.84.84,0,0,1-.06-.14q-.09-.2-.18-.36l-.18-.31-.22-.29a3.47,3.47,0,0,0-.25-.29l-.26-.23-.32-.24-.28-.16a2.93,2.93,0,0,0-.4-.19l-.12-.06-.16,0a2.09,2.09,0,0,0-.43-.11l-.33-.05a2.42,2.42,0,0,0-.38,0V93Z"/><path class="cls-5" d="M112.92,68.14a14,14,0,1,0,14,14A14,14,0,0,0,112.92,68.14Z"/><path class="cls-6" d="M127,82.17a14,14,0,0,0-14-14V96.21A14,14,0,0,0,127,82.17Z"/><line class="cls-7" x1="5.66" y1="5.66" x2="221.66" y2="221.66"/></g></g></svg>