<svg xmlns="http://www.w3.org/2000/svg" viewBox="0 0 201 254.77"><defs><style>.cls-1{fill:#fff;stroke:#000;stroke-miterlimit:10;}.cls-2{fill:#f0c835;}.cls-3{fill:#468c96;}.cls-4{fill:#5096a0;}.cls-5{fill:#ff763d;}.cls-6{fill:#ff8047;}</style></defs><title>tower_marker</title><g id="Layer_2" data-name="Layer 2"><g id="Layer_1-2" data-name="Layer 1"><path class="cls-1" d="M180.5.5H20.5a20,20,0,0,0-20,20v160a20,20,0,0,0,20,20H59a20,20,0,0,1,18.29,11.9l17.49,39.49a4,4,0,0,0,7.31,0l17.49-39.49a20,20,0,0,1,18.29-11.9H180.5a20,20,0,0,0,20-20V20.5A20,20,0,0,0,180.5.5Z"/><path class="cls-2" d="M74.61,46.46a2.83,2.83,0,0,0-4.17.15,38.64,38.64,0,0,0-.3,50.24,2.85,2.85,0,0,0,2.06,1A2.82,2.82,0,0,0,74.34,97l1-1a2.86,2.86,0,0,0,.16-3.85,31.62,31.62,0,0,1,.25-40.95,2.85,2.85,0,0,0-.14-3.87Z"/><path class="cls-2" d="M129.09,46.61a2.86,2.86,0,0,0-4.17-.15l-1,.95a2.83,2.83,0,0,0-.14,3.87,31.6,31.6,0,0,1,.24,41,2.87,2.87,0,0,0,.17,3.85l1,1a2.79,2.79,0,0,0,2.13.83,2.83,2.83,0,0,0,2.06-1,38.66,38.66,0,0,0-.29-50.24Z"/><path class="cls-2" d="M63.19,38.86a2.87,2.87,0,0,0-.1-3.93l-1-.94a2.84,2.84,0,0,0-4.13.1,56.23,56.23,0,0,0-.29,75.3,2.85,2.85,0,0,0,4.14.12l1-1a2.84,2.84,0,0,0,.11-3.91,49.23,49.23,0,0,1,.27-65.79Z"/><path class="cls-2" d="M141.51,34.09a2.84,2.84,0,0,0-2-.94,2.88,2.88,0,0,0-2.09.84l-.94.95a2.83,2.83,0,0,0-.1,3.92,49.21,49.21,0,0,1,.26,65.79,2.86,2.86,0,0,0,.11,3.91l1,1a2.82,2.82,0,0,0,2.09.83,2.85,2.85,0,0,0,2.05-1,56.25,56.25,0,0,0-.3-75.3Z"/><path class="cls-2" d="M50.7,26.43a2.85,2.85,0,0,0-.07-3.95l-1-.95a2.86,2.86,0,0,0-2.07-.84,2.93,2.93,0,0,0-2,.91,73.84,73.84,0,0,0-.29,100.28,2.86,2.86,0,0,0,4.12.09l1-1a2.85,2.85,0,0,0,.08-3.94,66.79,66.79,0,0,1,.27-90.65Z"/><path class="cls-2" d="M154,21.6a2.91,2.91,0,0,0-2-.91,2.88,2.88,0,0,0-2.07.84l-1,.94a2.86,2.86,0,0,0-.07,4,66.8,66.8,0,0,1,.27,90.66,2.85,2.85,0,0,0,.09,3.94l.95.94a2.84,2.84,0,0,0,4.11-.08A73.82,73.82,0,0,0,154,21.6Z"/><path class="cls-3" d="M141.53,175.2,103.34,70.27l-.07-.14a2.53,2.53,0,0,0-.18-.37c-.06-.1-.11-.2-.18-.3a3.15,3.15,0,0,0-.22-.29,3.47,3.47,0,0,0-.25-.29l-.26-.23-.32-.24a2.4,2.4,0,0,0-.27-.16,3.62,3.62,0,0,0-.4-.19.75.75,0,0,0-.13-.06l-.16,0a2.17,2.17,0,0,0-.42-.11,1.88,1.88,0,0,0-.33,0,2.55,2.55,0,0,0-.39,0,2.48,2.48,0,0,0-.38,0,1.88,1.88,0,0,0-.33,0,2.09,2.09,0,0,0-.43.11l-.16,0-.12.06a2.93,2.93,0,0,0-.4.19l-.28.16-.31.24-.26.23c-.09.09-.17.19-.26.29a3.06,3.06,0,0,0-.21.29c-.07.1-.13.2-.19.3s-.12.24-.17.37-.05.09-.07.14L58,175.2a3.81,3.81,0,0,0,2.27,4.88,4,4,0,0,0,1.3.23,3.8,3.8,0,0,0,3.57-2.51l5-13.59h59.35l4.94,13.59a3.8,3.8,0,0,0,3.58,2.51,3.86,3.86,0,0,0,1.29-.23A3.81,3.81,0,0,0,141.53,175.2ZM99.76,82.68l1.27,3.5-3.76,3.36ZM103.13,92l2.09,5.73H96.7Zm-10.9,11.44H101l-11.58,7.79Zm15.83,2.1,3.79,10.39H92.63ZM85.61,121.58h18L81.87,131.86Zm28.74,1.2,4.5,12.35H88.27ZM78.6,140.83h30.87L73.18,155.72Zm2.82,17.68,40-16.4,6,16.4Z"/><path class="cls-4" d="M101,86.18l-1.27,1.13V95l3.37-3,2.09,5.73H99.76v5.71H101l-1.21.81v6.87l8.3-5.58,3.79,10.39H99.76v5.7h3.8l-3.8,1.8v6.31l14.59-6.91,4.5,12.35H99.76v5.7h9.71l-9.71,4V151l21.63-8.87,6,16.4H99.76v5.7h29.68l4.94,13.59a3.8,3.8,0,0,0,3.58,2.51,3.86,3.86,0,0,0,1.29-.23,3.81,3.81,0,0,0,2.28-4.88L103.34,70.27l-.07-.14a2.53,2.53,0,0,0-.18-.37c-.06-.1-.11-.2-.18-.3a3.15,3.15,0,0,0-.22-.29,3.47,3.47,0,0,0-.25-.29l-.26-.23-.32-.24a2.4,2.4,0,0,0-.27-.16,3.62,3.62,0,0,0-.4-.19.75.75,0,0,0-.13-.06l-.16,0a2.17,2.17,0,0,0-.42-.11,1.88,1.88,0,0,0-.33,0,2.55,2.55,0,0,0-.39,0v14.9Z"/><path class="cls-5" d="M99.76,57.87a14,14,0,1,0,14,14A14,14,0,0,0,99.76,57.87Z"/><path class="cls-6" d="M113.8,71.9a14,14,0,0,0-14-14V85.94A14,14,0,0,0,113.8,71.9Z"/></g></g></svg>